{"title":"The.Tortured.2010.DvDRip.XviD.Feel-Free","uid":5894243,"size":823214352,"categoryP":"video","categoryS":"movies","magnet":"?xt=urn:btih:b0aea91cfd163ca6e5c13d7865592a4637ef73f5&amp;dn=The.Tortured.2010.DvDRip.XviD.Feel-Free&amp;tr=udp%3A%2F%2Ftracker.openbittorrent.com%3A80&amp;tr=udp%3A%2F%2Fopen.demonii.com%3A1337&amp;tr=udp%3A%2F%2Ftracker.coppersurfer.tk%3A6969&amp;tr=udp%3A%2F%2Fexodus.desync.com%3A6969","seeders":0,"leechers":1,"uploader":".BONE.","files":8,"time":1287387263,"description":"\nGenre:Horror | Thriller\nLanguage:English\nIMDb:http://www.imdb.com/title/tt1017464/\nSource:DVD\n\nGeneral\nComplete name :The.Tortured.2010.DvDRip.XviD.Feel-Free.avi\nFormat : AVI\nFormat/Info : Audio Video Interleave\nFile size : 785 MiB\nDuration : 1h 18mn\nOverall bit rate : 1 401 Kbps\nVideo #0\nMuxing mode : Packed bitstream\nCodec ID : XVID\nCodec ID/Hint : XviD\nDuration : 1h 18mn\nBit rate : 1 260 Kbps\nWidth : 720 pixels\nHeight : 384 pixels\nDisplay aspect ratio : 1.875\nFrame rate : 25.000 fps\nResolution : 24 bits\nColorimetry : 4:2:0\nScan type : Progressive\nBits/(Pixel*Frame) : 0.182\nStream size : 706 MiB (90%)\nAudio #1\nID : 1\nFormat : MPEG Audio\nFormat version : Version 1\nFormat profile : Layer 3\nCodec ID : 55\nCodec ID/Hint : MP3\nDuration : 1h 18mn\nBit rate mode : Variable\nBit rate : 128 Kbps\nChannel(s) : 2 channels\nSampling rate : 48.0 KHz\nResolution : 16 bits\nVideo delay : 960ms\nStream size : 71.5 MiB (9%)\nAlignment : Split accross interleaves\nInterleave, duration : 24 ms (0.60 video frame)\nInterleave, preload duration : 1517 ms\nWriting library : LAME3.90.\n\nPlot:\nAn upper-middle-class couple's life is destroyed when their only child is kidnapped and killed. Obsessed with revenge, the couple seizes an opportunity to kidnap the killer.\n","torrent":{"xt":"urn:btih:b0aea91cfd163ca6e5c13d7865592a4637ef73f5","amp;dn":"The.Tortured.2010.DvDRip.XviD.Feel-Free","amp;tr":["udp%3A%2F%2Ftracker.openbittorrent.com%3A80","udp%3A%2F%2Fopen.demonii.com%3A1337","udp%3A%2F%2Ftracker.coppersurfer.tk%3A6969","udp%3A%2F%2Fexodus.desync.com%3A6969"],"infoHash":"b0aea91cfd163ca6e5c13d7865592a4637ef73f5","infoHashBuffer":{"type":"Buffer","data":[176,174,169,28,253,22,60,166,229,193,61,120,101,89,42,70,55,239,115,245]},"announce":[],"urlList":[]}}